<svg width="1440" height="720" viewBox="0 0 1440 720" fill="none" xmlns="http://www.w3.org/2000/svg">
<g clip-path="url(#clip0_5102_62)">
<rect width="1440" height="720" fill="white"/>
<rect width="1440" height="720" fill="white"/>
<path d="M1190.79 501.417L1188.48 499.65C1219.21 459.299 1235.46 411.094 1235.46 360.226C1235.46 281.424 1195.82 208.927 1129.41 166.292L1130.98 163.847C1198.24 206.997 1238.37 280.419 1238.37 360.226C1238.37 411.719 1221.9 460.549 1190.79 501.417Z" fill="#EEEEEE"/>
<path d="M1005.2 593.397C876.616 593.397 772 488.781 772 360.199C772 231.616 876.616 127 1005.2 127V129.907C878.219 129.907 774.935 233.219 774.935 360.171C774.935 487.151 878.246 590.435 1005.2 590.435C1043.57 590.435 1081.55 580.816 1115.03 562.61L1116.42 565.164C1082.51 583.669 1044.03 593.397 1005.2 593.397Z" fill="#EEEEEE"/>
<path d="M894.849 539.703C832.025 501.009 794.527 433.892 794.527 360.199H800.369C800.369 431.854 836.835 497.096 897.92 534.731L894.849 539.703Z" fill="#EEEEEE"/>
<path d="M1005.2 570.898C982.102 570.898 959.412 567.175 937.728 559.866L939.603 554.35C960.689 561.469 982.754 565.083 1005.23 565.083C1110.74 565.083 1198.37 486.037 1209 381.203L1214.81 381.801C1203.83 489.569 1113.73 570.898 1005.2 570.898Z" fill="#EEEEEE"/>
<path d="M1207.42 327.482C1199.78 279.957 1175.38 236.399 1138.67 204.851C1101.58 172.95 1054.16 155.396 1005.2 155.396C965.662 155.396 927.294 166.673 894.224 188.031C855.693 212.921 826.292 250.42 811.428 293.625L805.912 291.723C821.183 247.295 851.427 208.736 891.045 183.139C925.065 161.184 964.521 149.581 1005.17 149.581C1055.55 149.581 1104.3 167.651 1142.45 200.449C1180.19 232.893 1205.3 277.701 1213.15 326.586L1207.42 327.482Z" fill="#EEEEEE"/>
<path d="M1005.2 512.367C921.289 512.367 853.03 444.109 853.03 360.199C853.03 326.232 863.981 294.114 884.659 267.321L889.279 270.881C869.388 296.668 858.872 327.537 858.872 360.199C858.872 440.875 924.522 506.525 1005.2 506.525C1019.52 506.525 1033.68 504.46 1047.24 500.384L1048.92 505.982C1034.79 510.248 1020.06 512.367 1005.2 512.367Z" fill="#EEEEEE"/>
<path d="M1107.97 472.423L1104.03 468.13C1134.22 440.467 1151.52 401.148 1151.52 360.226C1151.52 331.422 1143.16 303.543 1127.34 279.603L1132.2 276.397C1148.67 301.287 1157.37 330.281 1157.37 360.253C1157.34 402.778 1139.35 443.674 1107.97 472.423Z" fill="#EEEEEE"/>
<path d="M1096.23 245.637C1070.11 224.85 1038.62 213.872 1005.2 213.872C975.879 213.872 947.592 222.513 923.381 238.871L920.12 234.034C945.282 217.024 974.711 208.057 1005.2 208.057C1039.98 208.057 1072.72 219.47 1099.87 241.099L1096.23 245.637Z" fill="#EEEEEE"/>
<path d="M1005.2 486.227C984.71 486.227 964.357 481.2 946.369 471.689L947.728 469.108C965.308 478.401 985.172 483.319 1005.17 483.319C1060.41 483.319 1109.22 446.174 1123.86 392.969L1126.66 393.757C1111.72 448.212 1061.75 486.227 1005.2 486.227Z" fill="#EEEEEE"/>
<path d="M916.098 449.353C892.295 425.55 879.17 393.893 879.17 360.226C879.17 290.745 935.69 234.198 1005.2 234.198C1074.68 234.198 1131.23 290.745 1131.23 360.226H1128.32C1128.32 292.348 1073.1 237.132 1005.23 237.132C937.347 237.132 882.132 292.348 882.132 360.226C882.132 393.105 894.93 424.028 918.218 447.288L916.098 449.353Z" fill="#EEEEEE"/>
<path d="M1005.2 438.593C961.966 438.593 926.804 403.431 926.804 360.199C926.804 316.966 961.966 281.804 1005.2 281.804V287.647C965.2 287.647 932.647 320.2 932.647 360.199C932.647 400.197 965.2 432.75 1005.2 432.75C1045.2 432.75 1077.75 400.197 1077.75 360.199H1083.59C1083.57 403.431 1048.4 438.593 1005.2 438.593Z" fill="#EEEEEE"/>
<path d="M1005.2 399.165C983.705 399.165 966.232 381.692 966.232 360.198H969.14C969.14 380.062 985.308 396.23 1005.17 396.23C1025.03 396.23 1041.2 380.062 1041.2 360.198C1041.2 340.335 1025.03 324.167 1005.17 324.167C994.139 324.167 983.868 329.113 976.966 337.754L974.683 335.933C982.129 326.586 993.242 321.232 1005.17 321.232C1026.67 321.232 1044.14 338.705 1044.14 360.198C1044.14 381.692 1026.67 399.165 1005.2 399.165Z" fill="#EEEEEE"/>
<g filter="url(#filter0_dii_5102_62)">
<path fill-rule="evenodd" clip-rule="evenodd" d="M1545.55 365.075C1625.99 349.077 1620.42 187.18 1702.26 181.924C1766.85 177.776 1757.34 295.097 1792.88 349.19C1826.46 400.299 1925.67 432.534 1904.65 489.96C1879.09 559.775 1756.39 527.756 1707.14 583.446C1673.31 621.689 1725.27 695.515 1690.11 732.535C1657.13 767.263 1592.92 770.414 1550.27 748.63C1507.2 726.632 1517.42 655.616 1479.86 625.148C1443.42 595.585 1361.96 629.388 1348.05 584.574C1333.89 538.971 1434.64 520.145 1432.46 472.445C1428.74 391.291 1274.05 311.309 1332.97 255.375C1392 199.339 1465.73 380.952 1545.55 365.075Z" fill="url(#paint0_linear_5102_62)"/>
</g>
<g filter="url(#filter1_dii_5102_62)">
<path fill-rule="evenodd" clip-rule="evenodd" d="M-112.252 116.769C-58.6044 156.811 36.5459 64.9814 84.4473 111.746C122.253 148.654 45.9021 206.988 32.5122 258.097C19.861 306.387 54.5115 384.167 8.19729 402.794C-48.1079 425.439 -95.7281 333.525 -156.414 334.08C-198.087 334.461 -214.478 406.306 -256.139 405.21C-295.22 404.182 -332.214 366.959 -342.304 329.189C-352.493 291.049 -303.839 258.445 -305.879 219.021C-307.859 180.768 -372.869 149.827 -353.29 116.905C-333.367 83.4023 -266.902 134.224 -239.165 106.837C-191.975 60.2438 -227.979 -77.2734 -161.865 -72.0996C-95.6297 -66.9164 -165.494 77.0293 -112.252 116.769Z" fill="url(#paint1_linear_5102_62)"/>
</g>
</g>
<defs>
<filter id="filter0_dii_5102_62" x="1279.6" y="148.476" width="667.939" height="661.917" filterUnits="userSpaceOnUse" color-interpolation-filters="sRGB">
<feFlood flood-opacity="0" result="BackgroundImageFix"/>
<feColorMatrix in="SourceAlpha" type="matrix" values="0 0 0 0 0 0 0 0 0 0 0 0 0 0 0 0 0 0 127 0" result="hardAlpha"/>
<feOffset dy="8"/>
<feGaussianBlur stdDeviation="20"/>
<feColorMatrix type="matrix" values="0 0 0 0 0.0278431 0 0 0 0 0.143922 0 0 0 0 0.0898039 0 0 0 0.2 0"/>
<feBlend mode="normal" in2="BackgroundImageFix" result="effect1_dropShadow_5102_62"/>
<feBlend mode="normal" in="SourceGraphic" in2="effect1_dropShadow_5102_62" result="shape"/>
<feColorMatrix in="SourceAlpha" type="matrix" values="0 0 0 0 0 0 0 0 0 0 0 0 0 0 0 0 0 0 127 0" result="hardAlpha"/>
<feOffset dy="33.341"/>
<feGaussianBlur stdDeviation="16.6705"/>
<feComposite in2="hardAlpha" operator="arithmetic" k2="-1" k3="1"/>
<feColorMatrix type="matrix" values="0 0 0 0 0.177918 0 0 0 0 0.919659 0 0 0 0 0.573847 0 0 0 1 0"/>
<feBlend mode="normal" in2="shape" result="effect2_innerShadow_5102_62"/>
<feColorMatrix in="SourceAlpha" type="matrix" values="0 0 0 0 0 0 0 0 0 0 0 0 0 0 0 0 0 0 127 0" result="hardAlpha"/>
<feOffset dy="-33.341"/>
<feGaussianBlur stdDeviation="16.6705"/>
<feComposite in2="hardAlpha" operator="arithmetic" k2="-1" k3="1"/>
<feColorMatrix type="matrix" values="0 0 0 0 0.0908382 0 0 0 0 0.469544 0 0 0 0 0.292985 0 0 0 1 0"/>
<feBlend mode="normal" in2="effect2_innerShadow_5102_62" result="effect3_innerShadow_5102_62"/>
</filter>
<filter id="filter1_dii_5102_62" x="-396.961" y="-105.583" width="531.816" height="559.967" filterUnits="userSpaceOnUse" color-interpolation-filters="sRGB">
<feFlood flood-opacity="0" result="BackgroundImageFix"/>
<feColorMatrix in="SourceAlpha" type="matrix" values="0 0 0 0 0 0 0 0 0 0 0 0 0 0 0 0 0 0 127 0" result="hardAlpha"/>
<feOffset dy="8"/>
<feGaussianBlur stdDeviation="20"/>
<feColorMatrix type="matrix" values="0 0 0 0 0.0278431 0 0 0 0 0.143922 0 0 0 0 0.0898039 0 0 0 0.2 0"/>
<feBlend mode="normal" in2="BackgroundImageFix" result="effect1_dropShadow_5102_62"/>
<feBlend mode="normal" in="SourceGraphic" in2="effect1_dropShadow_5102_62" result="shape"/>
<feColorMatrix in="SourceAlpha" type="matrix" values="0 0 0 0 0 0 0 0 0 0 0 0 0 0 0 0 0 0 127 0" result="hardAlpha"/>
<feOffset dy="33.341"/>
<feGaussianBlur stdDeviation="16.6705"/>
<feComposite in2="hardAlpha" operator="arithmetic" k2="-1" k3="1"/>
<feColorMatrix type="matrix" values="0 0 0 0 0.177918 0 0 0 0 0.919659 0 0 0 0 0.573847 0 0 0 1 0"/>
<feBlend mode="normal" in2="shape" result="effect2_innerShadow_5102_62"/>
<feColorMatrix in="SourceAlpha" type="matrix" values="0 0 0 0 0 0 0 0 0 0 0 0 0 0 0 0 0 0 127 0" result="hardAlpha"/>
<feOffset dy="-33.341"/>
<feGaussianBlur stdDeviation="16.6705"/>
<feComposite in2="hardAlpha" operator="arithmetic" k2="-1" k3="1"/>
<feColorMatrix type="matrix" values="0 0 0 0 0.0908382 0 0 0 0 0.469544 0 0 0 0 0.292985 0 0 0 1 0"/>
<feBlend mode="normal" in2="effect2_innerShadow_5102_62" result="effect3_innerShadow_5102_62"/>
</filter>
<linearGradient id="paint0_linear_5102_62" x1="1564.75" y1="203.719" x2="1671.57" y2="753.148" gradientUnits="userSpaceOnUse">
<stop stop-color="#2BDE8A"/>
<stop offset="1" stop-color="#1A8453"/>
</linearGradient>
<linearGradient id="paint1_linear_5102_62" x1="-3.90104" y1="40.2525" x2="-278.77" y2="405.229" gradientUnits="userSpaceOnUse">
<stop stop-color="#2BDE8A"/>
<stop offset="1" stop-color="#1A8453"/>
</linearGradient>
<clipPath id="clip0_5102_62">
<rect width="1440" height="720" fill="white"/>
</clipPath>
</defs>
</svg>
