<svg width="24" height="24" viewBox="0 0 24 24" fill="none" xmlns="http://www.w3.org/2000/svg">
<path d="M19.44 13.0001C19.22 13.0001 18.99 12.9301 18.77 12.8801C18.3245 12.7819 17.8867 12.6516 17.46 12.4901C16.9961 12.3213 16.4862 12.3301 16.0283 12.5147C15.5705 12.6993 15.1971 13.0467 14.98 13.4901L14.76 13.9401C13.786 13.3983 12.891 12.7253 12.1 11.9401C11.3148 11.1491 10.6418 10.2541 10.1 9.28011L10.52 9.00011C10.9634 8.78303 11.3108 8.40964 11.4954 7.9518C11.68 7.49396 11.6888 6.98402 11.52 6.52011C11.3612 6.09253 11.2309 5.65491 11.13 5.21011C11.08 4.99011 11.04 4.76011 11.01 4.53011C10.8886 3.82573 10.5196 3.18785 9.96963 2.73135C9.41963 2.27485 8.72471 2.02972 8.01001 2.04011H5.01001C4.57904 2.03607 4.15226 2.12493 3.75872 2.30064C3.36518 2.47636 3.01412 2.73481 2.72944 3.05839C2.44476 3.38198 2.23314 3.76311 2.109 4.17583C1.98485 4.58855 1.95109 5.02317 2.01001 5.45011C2.54275 9.63949 4.45604 13.532 7.44766 16.5127C10.4393 19.4935 14.3387 21.3926 18.53 21.9101H18.91C19.6474 21.9112 20.3594 21.6406 20.91 21.1501C21.2264 20.8672 21.4791 20.5203 21.6515 20.1324C21.8239 19.7446 21.912 19.3245 21.91 18.9001V15.9001C21.8978 15.2055 21.6448 14.5367 21.1943 14.0078C20.7439 13.4789 20.1238 13.1227 19.44 13.0001V13.0001ZM19.94 19.0001C19.9398 19.1421 19.9094 19.2824 19.8508 19.4117C19.7922 19.5411 19.7067 19.6564 19.6 19.7501C19.4886 19.8471 19.358 19.9195 19.2167 19.9626C19.0754 20.0057 18.9266 20.0185 18.78 20.0001C15.0349 19.5199 11.5562 17.8066 8.89273 15.1304C6.22921 12.4542 4.53242 8.96745 4.07001 5.22011C4.05409 5.07363 4.06804 4.92544 4.11101 4.7845C4.15398 4.64356 4.22508 4.5128 4.32001 4.40011C4.41372 4.29344 4.52907 4.20795 4.65839 4.14933C4.78771 4.09071 4.92802 4.06029 5.07001 4.06011H8.07001C8.30256 4.05494 8.52963 4.13099 8.71215 4.27518C8.89467 4.41937 9.02122 4.62268 9.07001 4.85011C9.11001 5.12345 9.16001 5.39345 9.22001 5.66011C9.33553 6.18726 9.48927 6.70529 9.68001 7.21011L8.28001 7.86011C8.16031 7.91503 8.05263 7.99306 7.96317 8.08971C7.8737 8.18636 7.80421 8.29973 7.75868 8.42331C7.71315 8.54689 7.69248 8.67824 7.69786 8.80983C7.70323 8.94142 7.73455 9.07066 7.79001 9.19011C9.22921 12.2729 11.7073 14.7509 14.79 16.1901C15.0335 16.2901 15.3065 16.2901 15.55 16.1901C15.6747 16.1455 15.7893 16.0766 15.8872 15.9873C15.985 15.898 16.0642 15.7902 16.12 15.6701L16.74 14.2701C17.257 14.455 17.7846 14.6086 18.32 14.7301C18.5867 14.7901 18.8567 14.8401 19.13 14.8801C19.3574 14.9289 19.5607 15.0554 19.7049 15.238C19.8491 15.4205 19.9252 15.6476 19.92 15.8801L19.94 19.0001Z" fill="#8236C8"/>
</svg>
